<?xml version="1.0" encoding="utf-8"?>
<!-- Generator: Adobe Illustrator 25.2.0, SVG Export Plug-In . SVG Version: 6.00 Build 0)  -->
<svg version="1.1" id="Layer_1" xmlns="http://www.w3.org/2000/svg" xmlns:xlink="http://www.w3.org/1999/xlink" x="0px" y="0px"
	 viewBox="0 0 512 512" style="enable-background:new 0 0 512 512;" xml:space="preserve">
<path d="M256,13.9C122.5,13.9,13.9,122.5,13.9,256S122.5,498.1,256,498.1c133.5,0,242.1-108.6,242.1-242.1S389.5,13.9,256,13.9z
	 M256,474.2c-120.3,0-218.2-97.9-218.2-218.2S135.7,37.8,256,37.8c120.3,0,218.2,97.9,218.2,218.2S376.3,474.2,256,474.2z"/>
<path d="M229.2,250.6c7.4-3.4,13.3-8.4,17.7-15.2c4.4-6.7,6.5-14.2,6.5-22.2c0-7.4-1.8-14.2-5.3-20.2c-3.5-6-7.9-10.8-13.2-14.4
	c-5.3-3.6-11.3-6-18-7.1s-16.9-1.7-30.5-1.7h-68.9v172.4h58.7c22.2-0.2,36.2-0.6,42-1.2c9.2-1,17-3.7,23.3-8.2
	c6.3-4.4,11.3-10.4,14.9-17.8c3.6-7.4,5.5-15,5.5-22.9c0-10-2.8-18.6-8.5-26C247.8,258.9,239.7,253.7,229.2,250.6z M152.3,198.5h20
	c16.4,0,26.3,0.2,29.8,0.6c5.8,0.7,10.2,2.7,13.1,6.1c2.9,3.3,4.4,7.7,4.4,13c0,5.6-1.7,10.1-5.1,13.5c-3.4,3.4-8.1,5.5-14.1,6.2
	c-3.3,0.4-11.7,0.6-25.3,0.6h-22.8C152.3,238.4,152.3,198.5,152.3,198.5z M221,305.2c-3.3,3.6-7.5,5.9-12.6,6.9
	c-3.4,0.7-11.3,1.1-23.9,1.1h-32.2v-46.1h28.1c15.8,0,26.1,0.8,30.9,2.5c4.7,1.6,8.4,4.3,10.9,7.9c2.5,3.6,3.8,8,3.8,13.2
	C225.9,296.7,224.3,301.6,221,305.2z"/>
<path d="M376.3,228.9c-11.3-12.3-26.7-18.4-46.2-18.4c-17.4,0-31.8,5.9-43.1,17.6c-11.4,11.7-17.1,27.9-17.1,48.6
	c0,17.3,4.3,31.7,13,43c11,14.2,27.9,21.3,50.7,21.3c14.4,0,26.4-3.2,36-9.5c9.6-6.3,21.9-19.3,22.1-30.9l-35.7,0.2
	c-1.9,6.3-4.7,8.4-8.4,11.2c-3.7,2.8-8.3,4.2-13.7,4.2c-8,0-14.7-2.7-20-8.2c-5.4-5.5-8.2-13.1-8.4-22.9h87
	C393,260,387.6,241.2,376.3,228.9z M306.1,265.1c-0.1-9,2.3-16.1,7.3-21.4c4.9-5.2,11.2-7.9,18.8-7.9c7.1,0,13.1,2.5,18,7.5
	s7.5,12.3,7.8,21.8C358,265.1,306.1,265.1,306.1,265.1z"/>
<rect x="296.8" y="177.2" width="69.6" height="16.8"/>
</svg>
