<?xml version="1.0" encoding="utf-8"?>
<!-- Generator: Adobe Illustrator 25.2.0, SVG Export Plug-In . SVG Version: 6.00 Build 0)  -->
<svg version="1.1" id="Capa_1" xmlns="http://www.w3.org/2000/svg" xmlns:xlink="http://www.w3.org/1999/xlink" x="0px" y="0px"
	 viewBox="0 0 263.5 281" style="enable-background:new 0 0 263.5 281;" xml:space="preserve">
<style type="text/css">
	.st0{fill:#881EE5;}
	.st1{fill:none;stroke:#881EE5;stroke-width:8;stroke-miterlimit:10;}
</style>
<g>
	<g>
		<g id="Mouse_11_">
			<path class="st1" d="M203.3,115.6H189v24.2c3.4,0.9,5.7,3.4,5.7,6.1v4.3h45.8v-6.5C240.5,128.2,223.8,115.6,203.3,115.6z"/>
			<path class="st1" d="M186.1,161.1c1.6,0,2.9-1,2.9-2.2v-13c0-1.2-1.3-2.2-2.9-2.2c-1.6,0-2.9,1-2.9,2.2v13
				C183.2,160.1,184.5,161.1,186.1,161.1z"/>
			<path class="st1" d="M194.7,158.9c0,2.7-2.3,5.2-5.7,6.1v11.2c0,1.2-1.3,2.2-2.9,2.2c-1.6,0-2.9-1-2.9-2.2V165
				c-3.4-0.9-5.7-3.4-5.7-6.1v-4.3h-45.8v41.2c0,22.7,24.3,41.1,54.4,41.1s54.4-18.4,54.4-41.1v-41.1h-45.8L194.7,158.9L194.7,158.9
				z"/>
			<path class="st1" d="M183.2,115.6h-14.3c-20.5,0-37.2,12.6-37.2,28.1v6.5h45.8v-4.3c0-2.7,2.3-5.2,5.7-6.1L183.2,115.6
				L183.2,115.6z"/>
			<path class="st1" d="M171.8,107v4.3h28.6V107c0-1.2-1.3-2.2-2.9-2.2h-22.9C173.1,104.8,171.8,105.8,171.8,107z"/>
			<path class="st1" d="M183.2,85.3v15.2h5.7V85.3c0-19.1-20.5-34.7-45.8-34.7S97.4,66.2,97.4,85.3v131c0,9-9.6,16.2-21.5,16.2
				c-11.9,0-21.5-7.3-21.5-16.2v-3.2h-5.7v3.2c0,11.4,12.2,20.6,27.2,20.6s27.2-9.2,27.2-20.6v-131c0-16.7,17.9-30.3,40.1-30.3
				S183.2,68.6,183.2,85.3z"/>
			<rect x="34.4" y="78.8" class="st1" width="34.4" height="4.3"/>
			<rect x="54.4" y="87.5" class="st1" width="14.3" height="95.3"/>
			<rect x="34.4" y="87.5" class="st1" width="14.3" height="95.3"/>
			<path class="st1" d="M54.2,51.9c-0.7-1.1-2.4-1.6-3.8-1.1c-0.6,0.2-1.1,0.6-1.4,1.1L35.4,74.5h32.3L54.2,51.9z"/>
			<rect x="34.4" y="187.1" class="st1" width="34.4" height="4.3"/>
			<path class="st1" d="M68.8,202.2v-6.5H34.4v6.5c0,3.6,3.9,6.5,8.6,6.5h17.2C64.9,208.7,68.8,205.8,68.8,202.2z"/>
		</g>
	</g>
</g>
</svg>
