<?xml version="1.0" encoding="utf-8"?>
<!-- Generator: Adobe Illustrator 24.0.0, SVG Export Plug-In . SVG Version: 6.00 Build 0)  -->
<svg version="1.1" id="Capa_1" xmlns="http://www.w3.org/2000/svg" xmlns:xlink="http://www.w3.org/1999/xlink" x="0px" y="0px"
	 viewBox="0 0 1080 281" style="enable-background:new 0 0 1080 281;" xml:space="preserve">
<style type="text/css">
	.st0{fill:#881EE5;}
	.st1{fill:none;stroke:#881EE5;stroke-width:8;stroke-miterlimit:10;}
</style>
<g>
	<g>
		<g>
			<g id="group-17svg_9_">
				<path id="path-1_9_" class="st0" d="M1636.98,4122.74h-190.92c-12.28,0-20.32-9.19-20.32-20.91v-105.65
					c0-12.16,8.45-22.44,20.32-22.44h56.43l4.26-20.27c2.51-10.08,11.41-16.98,21.67-16.98h28.21c10.27,0,19.16,6.9,21.63,16.78
					l4.3,20.47h54.41c11.8,0,23.36,10.27,23.36,22.44v105.65C1660.33,4113.75,1649.39,4122.74,1636.98,4122.74z M1446.05,3984.92
					c-5.72,0-9.15,5.26-9.15,11.26v105.65c0,5.64,2.92,9.73,9.15,9.73h190.92c6.14,0,12.18-4.09,12.18-9.73v-105.65
					c0-6-6.54-11.26-12.18-11.26h-58.94c-2.64,0-4.92-1.85-5.46-4.44l-5.19-24.71c-1.17-4.68-5.61-8.1-10.74-8.1h-28.21
					c-5.13,0-9.57,3.42-10.79,8.3l-5.15,24.51c-0.54,2.58-2.82,4.44-5.47,4.44H1446.05z"/>
				<path id="path-2_9_" class="st0" d="M1540.29,4083.54c-20.52,0-37.21-16.7-37.21-37.22c0-20.53,16.69-37.23,37.21-37.23
					c20.51,0,37.21,16.7,37.21,37.23C1577.5,4066.84,1560.8,4083.54,1540.29,4083.54z M1540.29,4020.27
					c-14.36,0-26.04,11.69-26.04,26.05c0,14.36,11.68,26.05,26.04,26.05c14.36,0,26.04-11.68,26.04-26.05
					C1566.33,4031.95,1554.64,4020.27,1540.29,4020.27z"/>
				<path id="path-3_9_" class="st0" d="M1540.29,4103.49c-31.52,0-57.17-25.65-57.17-57.18c0-31.53,25.65-57.18,57.17-57.18
					c31.52,0,57.16,25.65,57.16,57.18C1597.44,4077.84,1571.8,4103.49,1540.29,4103.49z M1540.29,4000.31
					c-25.36,0-46,20.64-46,46.01c0,25.37,20.63,46,46,46c25.36,0,45.99-20.64,45.99-46
					C1586.27,4020.95,1565.64,4000.31,1540.29,4000.31z"/>
				<path id="path-4_9_" class="st0" d="M1491.17,3962.57h-29.79c-3.08,0-5.59-2.5-5.59-5.59s2.5-5.59,5.59-5.59h29.79
					c3.08,0,5.59,2.5,5.59,5.59S1494.26,3962.57,1491.17,3962.57z"/>
				<path id="path-5_9_" class="st0" d="M1609.81,3955.12h2.32c8.86,0,14.69,7,14.69,15.87v6.48h-29.79v-6.48
					C1597.03,3962.12,1600.95,3955.12,1609.81,3955.12z"/>
			</g>
		</g>
	</g>
</g>
<g>
	<g>
		<g id="Mouse_9_">
			<path class="st1" d="M1901.57,4001.46h-14.31v24.22c3.42,0.91,5.71,3.35,5.72,6.1v4.33h45.8v-6.5
				C1938.76,4014.07,1922.11,4001.48,1901.57,4001.46z"/>
			<path class="st1" d="M1884.4,4046.94c1.58,0,2.86-0.97,2.86-2.17v-12.99c0-1.2-1.28-2.17-2.86-2.17s-2.86,0.97-2.86,2.17v12.99
				C1881.54,4045.97,1882.82,4046.94,1884.4,4046.94z"/>
			<path class="st1" d="M1892.99,4044.78c-0.01,2.74-2.3,5.19-5.72,6.1v11.23c0,1.2-1.28,2.17-2.86,2.17s-2.86-0.97-2.86-2.17
				v-11.23c-3.42-0.91-5.71-3.35-5.72-6.1v-4.33h-45.8v41.15c0,22.72,24.35,41.15,54.38,41.15c30.03,0,54.38-18.42,54.38-41.15
				v-41.15h-45.8V4044.78z"/>
			<path class="st1" d="M1881.54,4001.46h-14.31c-20.54,0.02-37.19,12.61-37.21,28.15v6.5h45.8v-4.33c0.01-2.74,2.3-5.19,5.72-6.1
				V4001.46z"/>
			<path class="st1" d="M1870.09,3992.8v4.33h28.62v-4.33c0-1.19-1.28-2.16-2.86-2.17h-22.9
				C1871.37,3990.64,1870.09,3991.61,1870.09,3992.8z"/>
			<path class="st1" d="M1881.54,3971.14v15.16h5.72v-15.16c0-19.14-20.5-34.65-45.8-34.65c-25.29,0-45.8,15.51-45.8,34.65v131.02
				c0,8.97-9.61,16.24-21.47,16.24s-21.47-7.27-21.47-16.24v-3.25h-5.72v3.25c0,11.36,12.17,20.57,27.19,20.57
				c15.02,0,27.19-9.21,27.19-20.57v-131.02c0-16.74,17.94-30.32,40.07-30.32S1881.54,3954.4,1881.54,3971.14z"/>
			<rect x="1732.7" y="3964.65" class="st1" width="34.35" height="4.33"/>
			<rect x="1752.74" y="3973.31" class="st1" width="14.31" height="95.29"/>
			<rect x="1732.7" y="3973.31" class="st1" width="14.31" height="95.29"/>
			<path class="st1" d="M1752.48,3937.76c-0.66-1.09-2.35-1.57-3.79-1.07c-0.63,0.22-1.13,0.6-1.42,1.07l-13.55,22.55h32.31
				L1752.48,3937.76z"/>
			<rect x="1732.7" y="4072.93" class="st1" width="34.35" height="4.33"/>
			<path class="st1" d="M1767.05,4088.09v-6.5h-34.35v6.5c0.01,3.59,3.85,6.49,8.59,6.5h17.17
				C1763.2,4094.58,1767.04,4091.67,1767.05,4088.09z"/>
		</g>
	</g>
</g>
<g>
	<g>
		<g id="outline_9_">
			<path class="st0" d="M2024.35,3987.12l11.89,8.92c1.34,1,3.18,1,4.52,0l11.89-8.92c2.94-2.22,4.68-5.69,4.69-9.38v-1.99
				c0-6.47-5.26-11.72-11.73-11.72c-1.81,0-3.6,0.42-5.23,1.23c-1.19,0.59-2.58,0.59-3.77,0c-5.79-2.89-12.83-0.54-15.72,5.26
				c-0.81,1.62-1.23,3.41-1.23,5.23v1.99C2019.67,3981.42,2021.4,3984.9,2024.35,3987.12z M2027.19,3975.74
				c0-2.31,1.87-4.19,4.18-4.21c0.65,0,1.3,0.16,1.88,0.46c3.3,1.64,7.18,1.64,10.49,0c2.07-1.03,4.58-0.2,5.62,1.87
				c0.29,0.58,0.44,1.23,0.44,1.88v1.99c0,1.32-0.62,2.56-1.68,3.35l-9.63,7.22l-9.63-7.22c-1.05-0.79-1.67-2.04-1.68-3.35V3975.74z
				"/>
			<path class="st0" d="M2076.18,3996.79h33.92c1.87,0,3.46-1.38,3.73-3.23l3.77-26.38c0.3-2.06-1.14-3.97-3.2-4.27
				c-0.18-0.03-0.36-0.04-0.54-0.04h-7.54v-7.54c0-2.08-1.69-3.77-3.77-3.77h-11.3c-1.26,0-2.44,0.63-3.14,1.68l-6.42,9.63h-5.52
				c-2.08,0-3.77,1.69-3.77,3.77v26.38C2072.41,3995.1,2074.1,3996.79,2076.18,3996.79z M2079.95,3970.41h3.77
				c1.26,0,2.44-0.63,3.14-1.68l6.42-9.63h5.52v7.54c0,2.08,1.69,3.77,3.77,3.77h6.96l-2.69,18.84h-26.88V3970.41z"/>
			<path class="st0" d="M2140.46,3980.34l-2.3,11.48c-0.41,2.04,0.91,4.03,2.95,4.44c0.72,0.14,1.46,0.08,2.14-0.2l12.06-4.83
				l12.06,4.83c0.45,0.18,0.92,0.27,1.4,0.27c2.08,0,3.77-1.68,3.77-3.76c0-0.25-0.03-0.51-0.08-0.76l-2.3-11.48l6.65-6.65
				c1.47-1.47,1.47-3.86,0-5.33c-0.48-0.48-1.09-0.82-1.75-0.99l-9.29-2.32l-7.27-11.68c-1.25-1.77-3.69-2.19-5.46-0.94
				c-0.37,0.26-0.69,0.58-0.94,0.94l-7.27,11.68l-9.29,2.32c-2.02,0.51-3.25,2.55-2.74,4.57c0.17,0.66,0.51,1.27,0.99,1.75
				L2140.46,3980.34z M2148.16,3971.99c0.95-0.24,1.77-0.83,2.29-1.67l4.87-7.83l4.87,7.85c0.52,0.83,1.34,1.43,2.29,1.67l4.31,1.08
				l-3.37,3.37c-0.89,0.89-1.27,2.16-1.03,3.39l1.33,6.64l-7-2.8c-0.9-0.36-1.9-0.36-2.8,0l-7,2.8l1.33-6.64
				c0.24-1.23-0.15-2.5-1.03-3.39l-3.37-3.37L2148.16,3971.99z"/>
			<path class="st0" d="M1997.05,3959.1v30.15c0.01,12.48,10.13,22.6,22.61,22.61h97.98v17.28c0,4.16,3.38,7.54,7.54,7.54
				c2,0,3.91-0.79,5.33-2.21l22.61-22.61h21.05c12.48-0.01,22.6-10.13,22.61-22.61v-30.15c-0.01-12.48-10.13-22.6-22.61-22.61
				h-154.5C2007.18,3936.51,1997.06,3946.62,1997.05,3959.1z M2004.58,3959.1c0-8.32,6.75-15.07,15.07-15.07h154.5
				c8.32,0,15.07,6.75,15.07,15.07v30.15c0,8.32-6.75,15.07-15.07,15.07h-22.61c-1,0-1.96,0.4-2.66,1.1l-23.71,23.71v-21.05
				c0-2.08-1.69-3.77-3.77-3.77h-101.74c-8.32,0-15.07-6.75-15.07-15.07V3959.1z"/>
			<path class="st0" d="M2108.49,4027.61c-1.01-0.71-2.3-0.88-3.45-0.45l-39.57,14.39c-0.83,0.3-1.7,0.46-2.58,0.46h-30.05
				c-13.53,0.06-24.45,11.07-24.39,24.6c0.05,11.27,7.78,21.06,18.74,23.71v17.64c0,7.28,5.9,13.19,13.19,13.19
				s13.19-5.9,13.19-13.19v-1.88h1.57c7.44-0.01,13.47-6.02,13.51-13.46l36.4,13.23c0.41,0.15,0.85,0.23,1.29,0.23
				c2.08,0,3.77-1.69,3.77-3.77v-16.51l6.25-3.12c7.89-3.94,11.08-13.53,7.14-21.42c-1.54-3.09-4.05-5.6-7.14-7.14l-6.25-3.12
				v-20.28C2110.1,4029.47,2109.5,4028.32,2108.49,4027.61z M2015.89,4066.5c0.01-9.36,7.6-16.95,16.96-16.96h5.65v33.91h-5.65
				C2023.49,4083.45,2015.9,4075.86,2015.89,4066.5z M2046.04,4107.95c0,3.12-2.53,5.65-5.65,5.65s-5.65-2.53-5.65-5.65v-16.96h11.3
				V4107.95z M2061.11,4092.56c0,3.29-2.67,5.96-5.97,5.97h-1.57v-7.54h7.54V4092.56z M2102.56,4053.31v43.61l-34.53-12.56
				c-1.65-0.6-3.39-0.9-5.14-0.9h-16.85v-33.91h16.85c1.76,0,3.5-0.31,5.15-0.91l34.53-12.55V4053.31z M2112.98,4060.85
				c4.16,2.08,5.85,7.14,3.77,11.3c-0.82,1.63-2.14,2.95-3.77,3.77l0,0l-2.88,1.44v-17.95L2112.98,4060.85z"/>
		</g>
	</g>
</g>
<g>
	<g>
		<g>
			<g id="group-17svg_11_">
				<path id="path-1_11_" class="st0" d="M365.75,230.18H174.83c-12.28,0-20.32-9.19-20.32-20.91V103.62
					c0-12.16,8.45-22.44,20.32-22.44h56.43l4.26-20.27c2.51-10.08,11.41-16.98,21.67-16.98h28.21c10.27,0,19.16,6.9,21.63,16.78
					l4.3,20.47h54.41c11.8,0,23.36,10.27,23.36,22.44v105.65C389.11,221.19,378.16,230.18,365.75,230.18z M174.83,92.36
					c-5.72,0-9.15,5.26-9.15,11.26v105.65c0,5.64,2.92,9.73,9.15,9.73h190.92c6.14,0,12.18-4.09,12.18-9.73V103.62
					c0-6-6.54-11.26-12.18-11.26h-58.94c-2.64,0-4.92-1.85-5.46-4.43l-5.19-24.71c-1.17-4.68-5.61-8.1-10.74-8.1H257.2
					c-5.13,0-9.57,3.42-10.79,8.3l-5.15,24.51c-0.54,2.58-2.82,4.43-5.47,4.43H174.83z"/>
				<path id="path-2_11_" class="st0" d="M269.06,190.98c-20.52,0-37.21-16.7-37.21-37.22c0-20.53,16.69-37.23,37.21-37.23
					c20.51,0,37.21,16.7,37.21,37.23C306.27,174.28,289.58,190.98,269.06,190.98z M269.06,127.71c-14.36,0-26.04,11.69-26.04,26.05
					c0,14.36,11.68,26.05,26.04,26.05c14.36,0,26.04-11.69,26.04-26.05C295.1,139.39,283.42,127.71,269.06,127.71z"/>
				<path id="path-3_11_" class="st0" d="M269.06,210.94c-31.52,0-57.17-25.65-57.17-57.18c0-31.53,25.65-57.18,57.17-57.18
					c31.52,0,57.16,25.65,57.16,57.18C326.22,185.28,300.58,210.94,269.06,210.94z M269.06,107.75c-25.36,0-46,20.64-46,46.01
					c0,25.37,20.63,46,46,46c25.36,0,45.99-20.64,45.99-46C315.05,128.39,294.42,107.75,269.06,107.75z"/>
				<path id="path-4_11_" class="st0" d="M219.95,70.01h-29.79c-3.08,0-5.59-2.5-5.59-5.59c0-3.08,2.5-5.59,5.59-5.59h29.79
					c3.08,0,5.59,2.5,5.59,5.59C225.54,67.51,223.03,70.01,219.95,70.01z"/>
				<path id="path-5_11_" class="st0" d="M338.59,62.56h2.32c8.86,0,14.69,7,14.69,15.87v6.48H325.8v-6.48
					C325.8,69.57,329.73,62.56,338.59,62.56z"/>
			</g>
		</g>
	</g>
</g>
<g>
	<g>
		<g id="Mouse_11_">
			<path class="st1" d="M630.35,108.91h-14.31v24.22c3.42,0.91,5.71,3.35,5.72,6.1v4.33h45.8v-6.5
				C667.53,121.52,650.89,108.92,630.35,108.91z"/>
			<path class="st1" d="M613.18,154.38c1.58,0,2.86-0.97,2.86-2.17v-12.99c0-1.2-1.28-2.17-2.86-2.17c-1.58,0-2.86,0.97-2.86,2.17
				v12.99C610.31,153.41,611.59,154.38,613.18,154.38z"/>
			<path class="st1" d="M621.76,152.22c-0.01,2.74-2.3,5.19-5.72,6.1v11.23c0,1.2-1.28,2.17-2.86,2.17c-1.58,0-2.86-0.97-2.86-2.17
				v-11.23c-3.42-0.91-5.71-3.35-5.72-6.1v-4.33h-45.8v41.15c0,22.72,24.35,41.15,54.38,41.15s54.38-18.42,54.38-41.15v-41.15h-45.8
				V152.22z"/>
			<path class="st1" d="M610.31,108.91H596c-20.54,0.02-37.19,12.61-37.21,28.15v6.5h45.8v-4.33c0.01-2.74,2.3-5.19,5.72-6.1V108.91
				z"/>
			<path class="st1" d="M598.86,100.24v4.33h28.62v-4.33c0-1.19-1.28-2.16-2.86-2.17h-22.9C600.15,98.08,598.87,99.05,598.86,100.24
				z"/>
			<path class="st1" d="M610.31,78.59v15.16h5.72V78.59c0-19.14-20.5-34.65-45.8-34.65s-45.8,15.51-45.8,34.65v131.02
				c0,8.97-9.61,16.24-21.47,16.24c-11.86,0-21.47-7.27-21.47-16.24v-3.25h-5.72v3.25c0,11.36,12.17,20.57,27.19,20.57
				c15.02,0,27.19-9.21,27.19-20.57V78.59c0-16.74,17.94-30.32,40.07-30.32S610.31,61.84,610.31,78.59z"/>
			<rect x="461.48" y="72.09" class="st1" width="34.35" height="4.33"/>
			<rect x="481.51" y="80.75" class="st1" width="14.31" height="95.29"/>
			<rect x="461.48" y="80.75" class="st1" width="14.31" height="95.29"/>
			<path class="st1" d="M481.25,45.21c-0.66-1.09-2.35-1.57-3.79-1.07c-0.63,0.22-1.13,0.6-1.42,1.07L462.5,67.76h32.31
				L481.25,45.21z"/>
			<rect x="461.48" y="180.37" class="st1" width="34.35" height="4.33"/>
			<path class="st1" d="M495.82,195.53v-6.5h-34.35v6.5c0.01,3.59,3.85,6.49,8.59,6.5h17.17
				C491.98,202.02,495.82,199.12,495.82,195.53z"/>
		</g>
	</g>
</g>
<g>
	<g>
		<g id="outline_11_">
			<path class="st0" d="M753.13,94.56l11.89,8.92c1.34,1,3.18,1,4.52,0l11.89-8.92c2.94-2.22,4.68-5.69,4.69-9.38v-1.99
				c0-6.47-5.26-11.72-11.73-11.72c-1.81,0-3.6,0.42-5.23,1.23c-1.19,0.59-2.58,0.59-3.77,0c-5.79-2.89-12.83-0.54-15.72,5.26
				c-0.81,1.62-1.23,3.41-1.23,5.23v1.99C748.44,88.87,750.18,92.34,753.13,94.56z M755.97,83.19c0-2.31,1.87-4.19,4.18-4.21
				c0.65,0,1.3,0.16,1.88,0.46c3.3,1.64,7.18,1.64,10.49,0c2.07-1.03,4.58-0.2,5.62,1.87c0.29,0.58,0.44,1.23,0.44,1.88v1.99
				c0,1.32-0.62,2.56-1.68,3.35l-9.63,7.22l-9.63-7.22c-1.05-0.79-1.67-2.04-1.68-3.35V83.19z"/>
			<path class="st0" d="M804.96,104.23h33.91c1.87,0,3.46-1.38,3.73-3.23l3.77-26.38c0.3-2.06-1.13-3.97-3.2-4.27
				c-0.18-0.03-0.36-0.04-0.54-0.04h-7.54v-7.54c0-2.08-1.69-3.77-3.77-3.77h-11.3c-1.26,0-2.44,0.63-3.14,1.68l-6.42,9.63h-5.52
				c-2.08,0-3.77,1.69-3.77,3.77v26.38C801.19,102.54,802.88,104.23,804.96,104.23z M808.73,77.85h3.77c1.26,0,2.44-0.63,3.14-1.68
				l6.42-9.63h5.52v7.54c0,2.08,1.69,3.77,3.77,3.77h6.96l-2.69,18.84h-26.88V77.85z"/>
			<path class="st0" d="M869.24,87.79l-2.3,11.48c-0.41,2.04,0.91,4.03,2.95,4.44c0.72,0.14,1.46,0.08,2.14-0.2l12.06-4.83
				l12.06,4.83c0.45,0.18,0.92,0.27,1.4,0.27c2.08,0,3.77-1.68,3.77-3.76c0-0.25-0.03-0.51-0.08-0.76l-2.3-11.48l6.65-6.65
				c1.47-1.47,1.47-3.86,0-5.33c-0.48-0.48-1.09-0.82-1.75-0.99l-9.29-2.33L887.3,60.8c-1.25-1.77-3.69-2.19-5.46-0.94
				c-0.37,0.26-0.69,0.58-0.94,0.94l-7.27,11.68l-9.29,2.33c-2.02,0.51-3.24,2.55-2.74,4.57c0.17,0.66,0.51,1.27,0.99,1.75
				L869.24,87.79z M876.93,79.43c0.95-0.24,1.77-0.83,2.29-1.67l4.87-7.83l4.87,7.85c0.52,0.83,1.34,1.43,2.29,1.67l4.31,1.08
				l-3.37,3.37c-0.89,0.89-1.27,2.16-1.03,3.39l1.33,6.64l-7-2.8c-0.9-0.36-1.9-0.36-2.8,0l-7,2.8l1.33-6.64
				c0.24-1.23-0.14-2.5-1.03-3.39l-3.37-3.37L876.93,79.43z"/>
			<path class="st0" d="M725.82,66.55v30.15c0.01,12.48,10.13,22.6,22.61,22.61h97.98v17.28c0,4.16,3.38,7.54,7.54,7.54
				c2,0,3.91-0.79,5.33-2.21l22.61-22.61h21.05c12.48-0.01,22.6-10.13,22.61-22.61V66.55c-0.01-12.48-10.13-22.6-22.61-22.61h-154.5
				C735.95,43.95,725.84,54.06,725.82,66.55z M733.36,66.55c0-8.32,6.75-15.07,15.07-15.07h154.5c8.32,0,15.07,6.75,15.07,15.07
				v30.15c0,8.32-6.75,15.07-15.07,15.07h-22.61c-1,0-1.96,0.4-2.66,1.1l-23.71,23.71v-21.05c0-2.08-1.69-3.77-3.77-3.77H748.43
				c-8.32,0-15.07-6.75-15.07-15.07V66.55z"/>
			<path class="st0" d="M837.27,135.06c-1.01-0.71-2.3-0.88-3.45-0.45l-39.57,14.39c-0.83,0.3-1.7,0.46-2.58,0.46h-30.05
				c-13.53,0.06-24.45,11.07-24.39,24.6c0.05,11.27,7.78,21.06,18.74,23.71v17.64c0,7.28,5.9,13.19,13.19,13.19
				s13.19-5.9,13.19-13.19v-1.88h1.57c7.44-0.01,13.47-6.02,13.51-13.46l36.4,13.23c0.41,0.15,0.85,0.23,1.29,0.23
				c2.08,0,3.77-1.69,3.77-3.77v-16.51l6.25-3.12c7.89-3.94,11.08-13.53,7.14-21.42c-1.54-3.09-4.05-5.6-7.14-7.14l-6.25-3.12
				v-20.28C838.87,136.92,838.28,135.76,837.27,135.06z M744.67,173.94c0.01-9.36,7.6-16.95,16.96-16.96h5.65v33.91h-5.65
				C752.26,190.89,744.68,183.3,744.67,173.94z M774.81,215.4c0,3.12-2.53,5.65-5.65,5.65s-5.65-2.53-5.65-5.65v-16.96h11.3V215.4z
				 M789.89,200.01c0,3.29-2.67,5.96-5.97,5.97h-1.57v-7.54h7.54V200.01z M831.34,160.75v43.61l-34.53-12.56
				c-1.65-0.6-3.39-0.9-5.14-0.9h-16.85v-33.91h16.85c1.76,0,3.5-0.31,5.15-0.91l34.53-12.55V160.75z M841.75,168.29
				c4.16,2.08,5.85,7.14,3.77,11.3c-0.82,1.63-2.14,2.95-3.77,3.77l0,0l-2.88,1.44v-17.95L841.75,168.29z"/>
		</g>
	</g>
</g>
</svg>
