<?xml version="1.0" encoding="utf-8"?>
<!-- Generator: Adobe Illustrator 25.2.0, SVG Export Plug-In . SVG Version: 6.00 Build 0)  -->
<svg version="1.1" id="Capa_1" xmlns="http://www.w3.org/2000/svg" xmlns:xlink="http://www.w3.org/1999/xlink" x="0px" y="0px"
	 viewBox="0 0 263.5 281" style="enable-background:new 0 0 263.5 281;" xml:space="preserve">
<style type="text/css">
	.st0{fill:#881EE5;}
	.st1{fill:none;stroke:#881EE5;stroke-width:8;stroke-miterlimit:10;}
</style>
<g>
	<g>
		<g>
			<g id="group-17svg_1_">
				<path id="path-1_1_" class="st0" d="M219.7,227.5H28.8c-12.3,0-20.3-9.2-20.3-20.9V100.9c0-12.2,8.4-22.4,20.3-22.4h56.4
					l4.3-20.3c2.5-10.1,11.4-17,21.7-17h28.2c10.3,0,19.2,6.9,21.6,16.8l4.3,20.5h54.4c11.8,0,23.4,10.3,23.4,22.4v105.6
					C243,218.5,232.1,227.5,219.7,227.5z M28.8,89.7c-5.7,0-9.1,5.3-9.1,11.3v105.6c0,5.6,2.9,9.7,9.1,9.7h190.9
					c6.1,0,12.2-4.1,12.2-9.7V100.9c0-6-6.5-11.3-12.2-11.3h-58.9c-2.6,0-4.9-1.8-5.5-4.4l-5.2-24.7c-1.2-4.7-5.6-8.1-10.7-8.1
					h-28.2c-5.1,0-9.6,3.4-10.8,8.3l-5.1,24.5c-0.5,2.6-2.8,4.4-5.5,4.4H28.8z"/>
				<path id="path-2_1_" class="st0" d="M123,188.3c-20.5,0-37.2-16.7-37.2-37.2c0-20.5,16.7-37.2,37.2-37.2
					c20.5,0,37.2,16.7,37.2,37.2C160.2,171.6,143.5,188.3,123,188.3z M123,125c-14.4,0-26,11.7-26,26s11.7,26.1,26,26.1
					c14.4,0,26-11.7,26-26.1C149,136.7,137.3,125,123,125z"/>
				<path id="path-3_1_" class="st0" d="M123,208.3c-31.5,0-57.2-25.6-57.2-57.2S91.5,93.9,123,93.9s57.2,25.7,57.2,57.2
					C180.1,182.6,154.5,208.3,123,208.3z M123,105.1c-25.4,0-46,20.6-46,46s20.6,46,46,46c25.4,0,46-20.6,46-46
					C169,125.7,148.3,105.1,123,105.1z"/>
				<path id="path-4_1_" class="st0" d="M73.9,67.3H44.1c-3.1,0-5.6-2.5-5.6-5.6c0-3.1,2.5-5.6,5.6-5.6h29.8c3.1,0,5.6,2.5,5.6,5.6
					C79.5,64.8,77,67.3,73.9,67.3z"/>
				<path id="path-5_1_" class="st0" d="M192.5,59.9h2.3c8.9,0,14.7,7,14.7,15.9v6.5h-29.8v-6.5C179.7,66.9,183.7,59.9,192.5,59.9z"
					/>
			</g>
		</g>
	</g>
</g>
</svg>
