<?xml version="1.0" encoding="utf-8"?>
<!-- Generator: Adobe Illustrator 24.0.0, SVG Export Plug-In . SVG Version: 6.00 Build 0)  -->
<svg version="1.1" id="Capa_1" xmlns="http://www.w3.org/2000/svg" xmlns:xlink="http://www.w3.org/1999/xlink" x="0px" y="0px"
	 viewBox="0 0 1080 286" style="enable-background:new 0 0 1080 286;" xml:space="preserve">
<style type="text/css">
	.st0{fill:#130415;}
</style>
<g>
	<g>
		<g>
			<g>
				<path class="st0" d="M203.04,247.01c-41.49,0.23-75.61-44.4-74.63-98.91c0.93-51.92,34.21-94.8,75.58-94.22
					c40.99,0.58,74.9,44.67,73.79,99.26C276.73,204.82,243.73,247.28,203.04,247.01z M137.5,150.58
					c0.33,48.54,30.79,85.93,66.77,85.12c34.84-0.81,64.37-37.5,64.37-85.23c0-48.55-30.7-86.09-66.8-85.2
					C167,66.08,137.74,102.89,137.5,150.58z"/>
				<path class="st0" d="M187.45,218.42c0-22.82,0-45.44,0-68.3c-3.9,0-7.68,0-11.54,0c0-7.75,0-15.26,0-23.01
					c0.51-0.04,1.02-0.12,1.56-0.12c2.79,0,5.61-0.08,8.39,0.04c1.23,0.04,1.65-0.39,1.62-2.02c-0.06-5.89-0.06-11.74-0.03-17.63
					c0.03-6.63,1.47-12.63,5.13-17.43c3.54-4.65,8.06-7.17,12.98-7.55c7.92-0.58,15.86-0.5,23.81-0.7c0.09,0,0.18,0.12,0.36,0.23
					c0,7.79,0,15.61,0,23.63c-0.57,0.04-1.11,0.08-1.62,0.08c-3.6,0-7.2,0-10.79,0c-3.63,0.04-5.76,2.83-5.76,7.44
					c0,4.38,0,8.8,0.03,13.17c0,0.12,0.06,0.23,0.15,0.66c5.94,0,11.93,0,18.23,0c-0.78,7.86-1.5,15.38-2.28,23.17
					c-5.43,0-10.73,0-16.19,0c0,22.94,0,45.64,0,68.42C203.43,218.42,195.57,218.42,187.45,218.42z"/>
			</g>
		</g>
	</g>
	<g>
		<g>
			<g>
				<path class="st0" d="M710.41,151.85c0,12.21-0.24,24.45,0.07,36.66c0.52,21.61-12.97,38.31-30.15,45.74
					c-6.9,2.98-14.15,4.56-21.65,4.56c-23.46,0.03-46.95,0.35-70.41-0.11c-17.67-0.35-32.21-7.79-42.63-22.45
					c-5.47-7.72-8.09-16.49-8.09-25.99c0-25.15,0-50.27,0-75.42c0-20.52,9.93-34.87,27.57-44.2c7.67-4.03,16-5.75,24.68-5.79
					c22.76,0,45.56-0.14,68.32,0.07c17.67,0.14,32.42,6.95,43.29,21.26c6.07,8,8.99,17.19,8.99,27.29
					C710.41,126.24,710.41,139.05,710.41,151.85z M550.42,151.85c0,12.87,0,25.71,0,38.59c0,5.75,1.32,11.16,4.29,16.03
					c7.77,12.8,19.52,19.05,34.09,19.29c23.39,0.35,46.81,0.14,70.23,0.07c5.75,0,11.33-1.19,16.52-3.68
					c14.15-6.81,22.06-17.65,21.99-33.92c-0.14-24.91-0.04-49.81-0.04-74.72c0-7.05-1.99-13.51-6.13-19.19
					c-8.02-10.91-19.1-16.28-32.35-16.42c-23.35-0.28-46.71-0.11-70.06-0.07c-4.98,0-9.79,1.02-14.47,2.77
					c-12.83,4.81-24.75,16.98-24.19,34.91C550.73,127.64,550.42,139.75,550.42,151.85z"/>
				<path class="st0" d="M624.18,189.04c-22.48,0-40.61-18.03-40.64-40.48c-0.04-22.1,18.23-40.2,40.57-40.2
					c22.41-0.04,40.61,18.03,40.64,40.31C664.75,170.9,646.59,189,624.18,189.04z M624.18,176.06c15.3,0,27.71-12.31,27.68-27.47
					c-0.04-15.01-12.44-27.29-27.68-27.29c-15.3,0-27.78,12.24-27.78,27.36C596.43,163.81,608.87,176.09,624.18,176.06z"/>
				<path class="st0" d="M669.45,96.07c4.71,0,8.54,4.03,8.54,8.98c-0.04,4.95-3.9,8.95-8.61,8.91c-4.64-0.04-8.44-4.03-8.44-8.88
					C660.91,100.14,664.75,96.07,669.45,96.07z"/>
			</g>
		</g>
	</g>
	<g>
		<g>
			<path class="st0" d="M405.09,61.79c-40.85,0-74.08,41.78-74.08,93.14s33.23,93.14,74.08,93.14c40.85,0,74.09-41.78,74.09-93.14
				S445.94,61.79,405.09,61.79z M405.09,238.88c-36.82,0-66.78-37.66-66.78-83.95s29.96-83.95,66.78-83.95
				c36.82,0,66.78,37.66,66.78,83.95S441.91,238.88,405.09,238.88z"/>
			<path class="st0" d="M396.89,152.85c2.28-1.3,4.08-3.24,5.41-5.84c1.33-2.59,2-5.45,2-8.55c0-2.86-0.54-5.45-1.62-7.76
				c-1.08-2.31-2.43-4.15-4.05-5.54c-1.62-1.39-3.45-2.3-5.51-2.73c-2.05-0.44-5.16-0.66-9.34-0.66H362.7v66.32h17.96
				c6.79-0.06,11.07-0.21,12.85-0.45c2.83-0.39,5.21-1.44,7.14-3.14c1.93-1.7,3.46-3.98,4.57-6.83c1.12-2.85,1.67-5.78,1.67-8.8
				c0-3.83-0.86-7.16-2.59-10C402.58,156.03,400.1,154.02,396.89,152.85z M373.35,132.81h6.12c5.01,0,8.05,0.07,9.11,0.22
				c1.77,0.27,3.11,1.05,4.01,2.33c0.9,1.28,1.35,2.95,1.35,5c0,2.14-0.52,3.87-1.56,5.18c-1.04,1.31-2.48,2.1-4.3,2.38
				c-1.01,0.15-3.59,0.23-7.74,0.23h-6.98V132.81z M394.39,173.86c-0.99,1.4-2.29,2.28-3.87,2.65c-1.03,0.27-3.47,0.41-7.31,0.41
				h-9.86v-17.73h8.6c4.85,0,7.99,0.31,9.45,0.95c1.45,0.63,2.56,1.65,3.33,3.03c0.77,1.39,1.15,3.08,1.15,5.07
				C395.88,170.58,395.38,172.46,394.39,173.86z"/>
			<path class="st0" d="M441.9,144.5c-3.46-4.72-8.17-7.08-14.15-7.08c-5.32,0-9.72,2.25-13.2,6.76
				c-3.48,4.51-5.22,10.74-5.22,18.71c0,6.67,1.32,12.19,3.97,16.56c3.35,5.46,8.52,8.19,15.5,8.19c4.42,0,8.09-1.21,11.03-3.64
				c2.94-2.43,6.7-7.44,6.77-11.88l-10.91,0.08c-0.58,2.41-1.44,3.23-2.57,4.31c-1.14,1.09-2.53,1.63-4.2,1.63
				c-2.45,0-4.49-1.05-6.13-3.14c-1.64-2.1-2.49-5.03-2.57-8.8h26.63C447,156.45,445.35,149.22,441.9,144.5z M420.41,158.41
				c-0.03-3.47,0.72-6.21,2.23-8.23c1.51-2.02,3.43-3.03,5.75-3.03c2.17,0,4.01,0.96,5.52,2.87c1.51,1.92,2.31,4.71,2.38,8.39
				H420.41z"/>
			<rect x="417.58" y="124.6" class="st0" width="21.28" height="6.47"/>
		</g>
	</g>
	<g>
		<g>
			<g>
				<path id="WhatsApp_9_" class="st0" d="M918,150.57c0,47.33-33.83,85.7-75.57,85.7c-13.25,0-25.7-3.87-36.53-10.66l-41.84,15.19
					l13.64-45.98c-6.88-12.91-10.84-28.06-10.84-44.25c0-47.33,33.83-85.7,75.57-85.7C884.17,64.87,918,103.24,918,150.57z
					 M842.43,78.52c-35.04,0-63.54,32.32-63.54,72.05c0,15.76,4.5,30.37,12.1,42.24l-7.94,26.76l24.42-8.87
					c10.03,7.53,22.05,11.92,34.96,11.92c35.03,0,63.54-32.32,63.54-72.05C905.97,110.84,877.46,78.52,842.43,78.52z M880.59,170.3
					c-0.47-0.87-1.7-1.4-3.55-2.45c-1.85-1.05-10.96-6.13-12.66-6.83c-1.7-0.7-2.94-1.05-4.17,1.05c-1.23,2.1-4.78,6.83-5.87,8.23
					c-1.08,1.41-2.16,1.58-4.01,0.53c-1.85-1.05-7.82-3.27-14.9-10.43c-5.51-5.57-9.22-12.44-10.3-14.55
					c-1.08-2.1-0.11-3.24,0.81-4.28c0.83-0.94,1.85-2.45,2.78-3.68c0.93-1.23,1.24-2.1,1.85-3.5c0.62-1.4,0.31-2.63-0.15-3.68
					c-0.46-1.05-4.17-11.39-5.71-15.59c-1.54-4.2-3.08-3.5-4.17-3.5c-1.08,0-2.32-0.18-3.55-0.18c-1.24,0-3.24,0.53-4.94,2.63
					c-1.7,2.1-6.48,7.19-6.48,17.52c0,10.34,6.63,20.32,7.56,21.72c0.92,1.4,12.81,23.3,31.64,31.71
					c18.83,8.41,18.83,5.6,22.23,5.25c3.39-0.35,10.96-5.08,12.51-9.98C881.05,175.38,881.05,171.18,880.59,170.3z"/>
			</g>
		</g>
	</g>
</g>
</svg>
