<?xml version="1.0" encoding="utf-8"?>
<!-- Generator: Adobe Illustrator 25.2.0, SVG Export Plug-In . SVG Version: 6.00 Build 0)  -->
<svg version="1.1" id="Capa_1" xmlns="http://www.w3.org/2000/svg" xmlns:xlink="http://www.w3.org/1999/xlink" x="0px" y="0px"
	 viewBox="0 0 263.5 281" style="enable-background:new 0 0 263.5 281;" xml:space="preserve">
<style type="text/css">
	.st0{fill:#881EE5;}
	.st1{fill:none;stroke:#881EE5;stroke-width:8;stroke-miterlimit:10;}
</style>
<g>
	<g>
		<g id="outline_1_">
			<path class="st0" d="M71.1,105.1L83,114c1.3,1,3.2,1,4.5,0l11.9-8.9c2.9-2.2,4.7-5.7,4.7-9.4v-2c0-6.5-5.3-11.7-11.7-11.7
				c-1.8,0-3.6,0.4-5.2,1.2c-1.2,0.6-2.6,0.6-3.8,0c-5.8-2.9-12.8-0.5-15.7,5.3c-0.8,1.6-1.2,3.4-1.2,5.2v2
				C66.4,99.4,68.1,102.9,71.1,105.1z M73.9,93.7c0-2.3,1.9-4.2,4.2-4.2c0.7,0,1.3,0.2,1.9,0.5c3.3,1.6,7.2,1.6,10.5,0
				c2.1-1,4.6-0.2,5.6,1.9c0.3,0.6,0.4,1.2,0.4,1.9v2c0,1.3-0.6,2.6-1.7,3.3l-9.6,7.2L75.6,99c-1-0.8-1.7-2-1.7-3.3L73.9,93.7
				L73.9,93.7z"/>
			<path class="st0" d="M122.9,114.7h33.9c1.9,0,3.5-1.4,3.7-3.2l3.8-26.4c0.3-2.1-1.1-4-3.2-4.3c-0.2,0-0.4,0-0.5,0H153v-7.5
				c0-2.1-1.7-3.8-3.8-3.8H138c-1.3,0-2.4,0.6-3.1,1.7l-6.4,9.6h-5.5c-2.1,0-3.8,1.7-3.8,3.8V111
				C119.1,113.1,120.8,114.7,122.9,114.7z M126.7,88.4h3.8c1.3,0,2.4-0.6,3.1-1.7l6.4-9.6h5.5v7.5c0,2.1,1.7,3.8,3.8,3.8h7
				l-2.7,18.8h-26.9L126.7,88.4L126.7,88.4z"/>
			<path class="st0" d="M187.2,98.3l-2.3,11.5c-0.4,2,0.9,4,3,4.4c0.7,0.1,1.5,0.1,2.1-0.2l12.1-4.8l12.1,4.8
				c0.5,0.2,0.9,0.3,1.4,0.3c2.1,0,3.8-1.7,3.8-3.8c0-0.2,0-0.5-0.1-0.8l-2.3-11.5l6.7-6.7c1.5-1.5,1.5-3.9,0-5.3
				c-0.5-0.5-1.1-0.8-1.8-1l-9.3-2.3l-7.3-11.7c-1.2-1.8-3.7-2.2-5.5-0.9c-0.4,0.3-0.7,0.6-0.9,0.9L191.6,83l-9.3,2.3
				c-2,0.5-3.2,2.6-2.7,4.6c0.2,0.7,0.5,1.3,1,1.8L187.2,98.3z M194.9,89.9c1-0.2,1.8-0.8,2.3-1.7l4.9-7.8l4.9,7.8
				c0.5,0.8,1.3,1.4,2.3,1.7l4.3,1.1l-3.4,3.4c-0.9,0.9-1.3,2.2-1,3.4l1.3,6.6l-7-2.8c-0.9-0.4-1.9-0.4-2.8,0l-7,2.8l1.3-6.6
				c0.2-1.2-0.1-2.5-1-3.4l-3.4-3.4L194.9,89.9z"/>
			<path class="st0" d="M43.8,77.1v30.2c0,12.5,10.1,22.6,22.6,22.6h98v17.3c0,4.2,3.4,7.5,7.5,7.5c2,0,3.9-0.8,5.3-2.2l22.6-22.6
				h21c12.5,0,22.6-10.1,22.6-22.6V77.1c0-12.5-10.1-22.6-22.6-22.6H66.4C53.9,54.5,43.8,64.6,43.8,77.1z M51.3,77.1
				C51.3,68.7,58,62,66.4,62h154.5c8.3,0,15.1,6.8,15.1,15.1v30.2c0,8.3-6.8,15.1-15.1,15.1h-22.6c-1,0-2,0.4-2.7,1.1l-23.7,23.7
				V126c0-2.1-1.7-3.8-3.8-3.8H66.4c-8.3,0-15.1-6.8-15.1-15.1V77.1z"/>
			<path class="st0" d="M155.2,145.6c-1-0.7-2.3-0.9-3.5-0.4l-39.6,14.4c-0.8,0.3-1.7,0.5-2.6,0.5h-30C66,160,55.1,171,55.2,184.6
				c0,11.3,7.8,21.1,18.7,23.7v17.6c0,7.3,5.9,13.2,13.2,13.2s13.2-5.9,13.2-13.2V224h1.6c7.4,0,13.5-6,13.5-13.5l36.4,13.2
				c0.4,0.1,0.8,0.2,1.3,0.2c2.1,0,3.8-1.7,3.8-3.8v-16.5l6.2-3.1c7.9-3.9,11.1-13.5,7.1-21.4c-1.5-3.1-4-5.6-7.1-7.1l-6.2-3.1
				v-20.3C156.8,147.4,156.2,146.3,155.2,145.6z M62.6,184.5c0-9.4,7.6-16.9,17-17h5.7v33.9h-5.7C70.2,201.4,62.6,193.8,62.6,184.5z
				 M92.7,225.9c0,3.1-2.5,5.6-5.7,5.6s-5.7-2.5-5.7-5.6v-17h11.3L92.7,225.9L92.7,225.9z M107.8,210.5c0,3.3-2.7,6-6,6h-1.6V209
				h7.5V210.5z M149.3,171.3v43.6l-34.5-12.6c-1.7-0.6-3.4-0.9-5.1-0.9H92.8v-33.9h16.8c1.8,0,3.5-0.3,5.2-0.9l34.5-12.6
				L149.3,171.3L149.3,171.3z M159.7,178.8c4.2,2.1,5.8,7.1,3.8,11.3c-0.8,1.6-2.1,2.9-3.8,3.8l0,0l-2.9,1.4v-17.9L159.7,178.8z"/>
		</g>
	</g>
</g>
</svg>
