<?xml version="1.0" encoding="utf-8"?>
<!-- Generator: Adobe Illustrator 19.0.0, SVG Export Plug-In . SVG Version: 6.00 Build 0)  -->
<svg version="1.1" id="Capa_1" xmlns="http://www.w3.org/2000/svg" xmlns:xlink="http://www.w3.org/1999/xlink" x="0px" y="0px"
	 viewBox="893 256 318 281" style="enable-background:new 893 256 318 281;" xml:space="preserve">
<style type="text/css">
	.st0{fill:#881EE5;}
	.st1{fill:none;stroke:#881EE5;stroke-width:8;stroke-miterlimit:10;}
</style>
<g>
	<g>
		<g>
			<g id="group-17svg_9_">
				<path id="path-1_9_" class="st0" d="M1871,4378.7h-190.9c-12.3,0-20.3-9.2-20.3-20.9v-105.6c0-12.2,8.4-22.4,20.3-22.4h56.4
					l4.3-20.3c2.5-10.1,11.4-17,21.7-17h28.2c10.3,0,19.2,6.9,21.6,16.8l4.3,20.5h54.4c11.8,0,23.4,10.3,23.4,22.4v105.6
					C1894.3,4369.8,1883.4,4378.7,1871,4378.7z M1680.1,4240.9c-5.7,0-9.2,5.3-9.2,11.3v105.7c0,5.6,2.9,9.7,9.2,9.7H1871
					c6.1,0,12.2-4.1,12.2-9.7v-105.6c0-6-6.5-11.3-12.2-11.3H1812c-2.6,0-4.9-1.8-5.5-4.4l-5.2-24.7c-1.2-4.7-5.6-8.1-10.7-8.1
					h-28.2c-5.1,0-9.6,3.4-10.8,8.3l-5.2,24.5c-0.5,2.6-2.8,4.4-5.5,4.4H1680.1L1680.1,4240.9z"/>
				<path id="path-2_9_" class="st0" d="M1774.3,4339.5c-20.5,0-37.2-16.7-37.2-37.2c0-20.5,16.7-37.2,37.2-37.2
					c20.5,0,37.2,16.7,37.2,37.2C1811.5,4322.8,1794.8,4339.5,1774.3,4339.5z M1774.3,4276.3c-14.4,0-26,11.7-26,26.1
					c0,14.4,11.7,26,26,26s26-11.7,26-26C1800.3,4288,1788.6,4276.3,1774.3,4276.3z"/>
				<path id="path-3_9_" class="st0" d="M1774.3,4359.5c-31.5,0-57.2-25.6-57.2-57.2c0-31.5,25.7-57.2,57.2-57.2
					s57.2,25.6,57.2,57.2C1831.4,4333.8,1805.8,4359.5,1774.3,4359.5z M1774.3,4256.3c-25.4,0-46,20.6-46,46s20.6,46,46,46
					c25.4,0,46-20.6,46-46C1820.3,4277,1799.6,4256.3,1774.3,4256.3z"/>
				<path id="path-4_9_" class="st0" d="M1725.2,4218.6h-29.8c-3.1,0-5.6-2.5-5.6-5.6s2.5-5.6,5.6-5.6h29.8c3.1,0,5.6,2.5,5.6,5.6
					S1728.3,4218.6,1725.2,4218.6z"/>
				<path id="path-5_9_" class="st0" d="M1843.8,4211.1h2.3c8.9,0,14.7,7,14.7,15.9v6.5H1831v-6.5
					C1831,4218.1,1834.9,4211.1,1843.8,4211.1z"/>
			</g>
		</g>
	</g>
</g>
<g>
	<g>
		<g id="Mouse_9_">
			<path class="st1" d="M2135.6,4257.5h-14.3v24.2c3.4,0.9,5.7,3.4,5.7,6.1v4.3h45.8v-6.5
				C2172.8,4270.1,2156.1,4257.5,2135.6,4257.5z"/>
			<path class="st1" d="M2118.4,4302.9c1.6,0,2.9-1,2.9-2.2v-13c0-1.2-1.3-2.2-2.9-2.2c-1.6,0-2.9,1-2.9,2.2v13
				C2115.5,4302,2116.8,4302.9,2118.4,4302.9z"/>
			<path class="st1" d="M2127,4300.8c0,2.7-2.3,5.2-5.7,6.1v11.2c0,1.2-1.3,2.2-2.9,2.2c-1.6,0-2.9-1-2.9-2.2v-11.2
				c-3.4-0.9-5.7-3.3-5.7-6.1v-4.3H2064v41.1c0,22.7,24.3,41.2,54.4,41.2c30,0,54.4-18.4,54.4-41.1v-41.1H2127V4300.8z"/>
			<path class="st1" d="M2115.5,4257.5h-14.3c-20.5,0-37.2,12.6-37.2,28.1v6.5h45.8v-4.3c0-2.7,2.3-5.2,5.7-6.1V4257.5z"/>
			<path class="st1" d="M2104.1,4248.8v4.3h28.6v-4.3c0-1.2-1.3-2.2-2.9-2.2h-22.9C2105.4,4246.6,2104.1,4247.6,2104.1,4248.8z"/>
			<path class="st1" d="M2115.5,4227.1v15.2h5.7v-15.2c0-19.1-20.5-34.6-45.8-34.6c-25.3,0-45.8,15.5-45.8,34.6v131
				c0,9-9.6,16.2-21.5,16.2s-21.5-7.3-21.5-16.2v-3.3h-5.7v3.3c0,11.4,12.2,20.6,27.2,20.6c15,0,27.2-9.2,27.2-20.6v-131
				c0-16.7,17.9-30.3,40.1-30.3C2097.6,4196.8,2115.5,4210.4,2115.5,4227.1z"/>
			<rect x="1966.7" y="4220.6" class="st1" width="34.3" height="4.3"/>
			<rect x="1986.7" y="4229.3" class="st1" width="14.3" height="95.3"/>
			<rect x="1966.7" y="4229.3" class="st1" width="14.3" height="95.3"/>
			<path class="st1" d="M1986.5,4193.8c-0.7-1.1-2.3-1.6-3.8-1.1c-0.6,0.2-1.1,0.6-1.4,1.1l-13.6,22.6h32.3L1986.5,4193.8z"/>
			<rect x="1966.7" y="4328.9" class="st1" width="34.3" height="4.3"/>
			<path class="st1" d="M2001.1,4344.1v-6.5h-34.3v6.5c0,3.6,3.8,6.5,8.6,6.5h17.2C1997.2,4350.6,2001,4347.7,2001.1,4344.1z"/>
		</g>
	</g>
</g>
<g>
	<g>
		<g id="outline_9_">
			<path class="st0" d="M2258.4,4243.1l11.9,8.9c1.3,1,3.2,1,4.5,0l11.9-8.9c2.9-2.2,4.7-5.7,4.7-9.4v-2c0-6.5-5.3-11.7-11.7-11.7
				c-1.8,0-3.6,0.4-5.2,1.2c-1.2,0.6-2.6,0.6-3.8,0c-5.8-2.9-12.8-0.5-15.7,5.3c-0.8,1.6-1.2,3.4-1.2,5.2v2
				C2253.7,4237.4,2255.4,4240.9,2258.4,4243.1z M2261.2,4231.7c0-2.3,1.9-4.2,4.2-4.2c0.6,0,1.3,0.2,1.9,0.5
				c3.3,1.6,7.2,1.6,10.5,0c2.1-1,4.6-0.2,5.6,1.9c0.3,0.6,0.4,1.2,0.4,1.9v2c0,1.3-0.6,2.6-1.7,3.4l-9.6,7.2l-9.6-7.2
				c-1.1-0.8-1.7-2-1.7-3.4L2261.2,4231.7L2261.2,4231.7z"/>
			<path class="st0" d="M2310.2,4252.8h33.9c1.9,0,3.5-1.4,3.7-3.2l3.8-26.4c0.3-2.1-1.1-4-3.2-4.3c-0.2,0-0.4,0-0.5,0h-7.5v-7.5
				c0-2.1-1.7-3.8-3.8-3.8h-11.3c-1.3,0-2.4,0.6-3.1,1.7l-6.4,9.6h-5.5c-2.1,0-3.8,1.7-3.8,3.8v26.4
				C2306.4,4251.1,2308.1,4252.8,2310.2,4252.8z M2313.9,4226.4h3.8c1.3,0,2.4-0.6,3.1-1.7l6.4-9.6h5.5v7.5c0,2.1,1.7,3.8,3.8,3.8h7
				l-2.7,18.8H2314L2313.9,4226.4L2313.9,4226.4z"/>
			<path class="st0" d="M2374.5,4236.3l-2.3,11.5c-0.4,2,0.9,4,2.9,4.4c0.7,0.1,1.5,0.1,2.1-0.2l12.1-4.8l12.1,4.8
				c0.4,0.2,0.9,0.3,1.4,0.3c2.1,0,3.8-1.7,3.8-3.8c0-0.3,0-0.5-0.1-0.8l-2.3-11.5l6.6-6.6c1.5-1.5,1.5-3.9,0-5.3
				c-0.5-0.5-1.1-0.8-1.8-1l-9.3-2.3l-7.3-11.7c-1.3-1.8-3.7-2.2-5.5-0.9c-0.4,0.3-0.7,0.6-0.9,0.9l-7.3,11.7l-9.3,2.3
				c-2,0.5-3.3,2.5-2.7,4.6c0.2,0.7,0.5,1.3,1,1.8L2374.5,4236.3z M2382.2,4228c0.9-0.2,1.8-0.8,2.3-1.7l4.9-7.8l4.9,7.8
				c0.5,0.8,1.3,1.4,2.3,1.7l4.3,1.1l-3.4,3.4c-0.9,0.9-1.3,2.2-1,3.4l1.3,6.6l-7-2.8c-0.9-0.4-1.9-0.4-2.8,0l-7,2.8l1.3-6.6
				c0.2-1.2-0.1-2.5-1-3.4l-3.4-3.4L2382.2,4228z"/>
			<path class="st0" d="M2231.1,4215.1v30.1c0,12.5,10.1,22.6,22.6,22.6h98v17.3c0,4.2,3.4,7.5,7.5,7.5c2,0,3.9-0.8,5.3-2.2
				l22.6-22.6h21.1c12.5,0,22.6-10.1,22.6-22.6v-30.1c0-12.5-10.1-22.6-22.6-22.6h-154.5C2241.2,4192.5,2231.1,4202.6,2231.1,4215.1
				z M2238.6,4215.1c0-8.3,6.8-15.1,15.1-15.1h154.5c8.3,0,15.1,6.8,15.1,15.1v30.1c0,8.3-6.8,15.1-15.1,15.1h-22.6
				c-1,0-2,0.4-2.7,1.1l-23.7,23.7v-21c0-2.1-1.7-3.8-3.8-3.8h-101.7c-8.3,0-15.1-6.8-15.1-15.1L2238.6,4215.1L2238.6,4215.1z"/>
			<path class="st0" d="M2342.5,4283.6c-1-0.7-2.3-0.9-3.4-0.5l-39.6,14.4c-0.8,0.3-1.7,0.5-2.6,0.5h-30.1
				c-13.5,0.1-24.4,11.1-24.4,24.6c0.1,11.3,7.8,21.1,18.7,23.7v17.6c0,7.3,5.9,13.2,13.2,13.2c7.3,0,13.2-5.9,13.2-13.2v-1.9h1.6
				c7.4,0,13.5-6,13.5-13.5l36.4,13.2c0.4,0.1,0.9,0.2,1.3,0.2c2.1,0,3.8-1.7,3.8-3.8v-16.5l6.3-3.1c7.9-3.9,11.1-13.5,7.1-21.4
				c-1.5-3.1-4.1-5.6-7.1-7.1l-6.3-3.1v-20.3C2344.1,4285.5,2343.5,4284.3,2342.5,4283.6z M2249.9,4322.5c0-9.4,7.6-17,17-17h5.6
				v33.9h-5.6C2257.5,4339.5,2249.9,4331.9,2249.9,4322.5z M2280,4364c0,3.1-2.5,5.6-5.6,5.6c-3.1,0-5.7-2.5-5.7-5.6v-17h11.3V4364z
				 M2295.1,4348.6c0,3.3-2.7,6-6,6h-1.6v-7.5h7.5V4348.6z M2336.6,4309.3v43.6l-34.5-12.6c-1.6-0.6-3.4-0.9-5.1-0.9H2280v-33.9
				h16.9c1.8,0,3.5-0.3,5.1-0.9l34.5-12.6L2336.6,4309.3L2336.6,4309.3z M2347,4316.9c4.2,2.1,5.9,7.1,3.8,11.3
				c-0.8,1.6-2.1,2.9-3.8,3.8l0,0l-2.9,1.4v-18L2347,4316.9z"/>
		</g>
	</g>
</g>
<g>
	<g>
		<g>
			<g id="group-17svg_11_">
				<path id="path-1_11_" class="st0" d="M482.5,476.8H291.5c-12.3,0-20.3-9.2-20.3-20.9V350.3c0-12.2,8.5-22.4,20.3-22.4H348
					l4.3-20.3c2.5-10.1,11.4-17,21.7-17h28.2c10.3,0,19.2,6.9,21.6,16.8l4.3,20.5h54.4c11.8,0,23.4,10.3,23.4,22.4v105.7
					C505.8,467.8,494.9,476.8,482.5,476.8z M291.5,339c-5.7,0-9.2,5.3-9.2,11.3v105.7c0,5.6,2.9,9.7,9.2,9.7h190.9
					c6.1,0,12.2-4.1,12.2-9.7V350.3c0-6-6.5-11.3-12.2-11.3h-58.9c-2.6,0-4.9-1.9-5.5-4.4l-5.2-24.7c-1.2-4.7-5.6-8.1-10.7-8.1
					h-28.2c-5.1,0-9.6,3.4-10.8,8.3l-5.2,24.5c-0.5,2.6-2.8,4.4-5.5,4.4H291.5z"/>
				<path id="path-2_11_" class="st0" d="M385.8,437.6c-20.5,0-37.2-16.7-37.2-37.2c0-20.5,16.7-37.2,37.2-37.2
					c20.5,0,37.2,16.7,37.2,37.2C423,420.9,406.3,437.6,385.8,437.6z M385.8,374.4c-14.4,0-26,11.7-26,26.1c0,14.4,11.7,26,26,26
					c14.4,0,26-11.7,26-26C411.8,386,400.1,374.4,385.8,374.4z"/>
				<path id="path-3_11_" class="st0" d="M385.8,457.6c-31.5,0-57.2-25.6-57.2-57.2s25.6-57.2,57.2-57.2s57.2,25.6,57.2,57.2
					C442.9,431.9,417.3,457.6,385.8,457.6z M385.8,354.4c-25.4,0-46,20.6-46,46s20.6,46,46,46c25.4,0,46-20.6,46-46
					C431.8,375,411.1,354.4,385.8,354.4z"/>
				<path id="path-4_11_" class="st0" d="M336.7,316.7h-29.8c-3.1,0-5.6-2.5-5.6-5.6c0-3.1,2.5-5.6,5.6-5.6h29.8
					c3.1,0,5.6,2.5,5.6,5.6C342.2,314.2,339.7,316.7,336.7,316.7z"/>
				<path id="path-5_11_" class="st0" d="M455.3,309.2h2.3c8.9,0,14.7,7,14.7,15.9v6.5h-29.8v-6.5
					C442.5,316.2,446.4,309.2,455.3,309.2z"/>
			</g>
		</g>
	</g>
</g>
<g>
	<g>
		<g id="Mouse_11_">
			<g>
				<path id="XMLID_52_" class="st0" d="M835.9,403.1h-53.8v-8.3c0-0.7-1-1.8-2.7-2.2l-3-0.8v-31.3h18.3c22.7,0,41.2,14.4,41.2,32.1
					V403.1z M790.1,395.1h37.8v-2.5c0-13.3-14.9-24.1-33.2-24.2h-10.3v17.5c3.5,1.9,5.7,5.2,5.7,8.8V395.1z"/>
			</g>
			<g>
				<path id="XMLID_51_" class="st0" d="M777.5,413.9c-2,0-3.8-0.7-5.1-2c-1.1-1.1-1.7-2.6-1.7-4.2v-13c0-3.5,3-6.2,6.9-6.2
					c3.8,0,6.9,2.7,6.9,6.2v13C784.3,411.2,781.3,413.9,777.5,413.9z"/>
			</g>
			<g>
				<path id="XMLID_48_" class="st0" d="M777.5,489.7c-32.2,0-58.4-20.3-58.4-45.2v-45.1h53.8v8.3c0,0.7,1,1.8,2.7,2.2l1.8,0.5
					l1.8-0.5c1.7-0.5,2.7-1.5,2.7-2.2v-8.3h53.8v45.1C835.9,469.5,809.7,489.7,777.5,489.7z M727.1,407.4v37.1
					c0,20.5,22.6,37.2,50.4,37.2c27.8,0,50.4-16.7,50.4-37.2v-37.1h-37.8v0.3c0,3.6-2.2,6.9-5.7,8.8v8.5c0,3.5-3,6.2-6.9,6.2
					c-3.8,0-6.9-2.7-6.9-6.2v-8.5c-3.5-1.9-5.7-5.2-5.7-8.8v-0.3H727.1z"/>
			</g>
			<g>
				<path id="XMLID_45_" class="st0" d="M772.9,403.1h-53.8v-10.5c0-17.7,18.5-32.1,41.2-32.2h18.3v31.3l-3,0.8
					c-1.7,0.5-2.7,1.5-2.7,2.3V403.1z M727.1,395.1h37.8v-0.3c0-3.6,2.2-6.9,5.7-8.8v-17.5h-10.3c-18.3,0-33.2,10.9-33.2,24.2V395.1
					z"/>
			</g>
			<g>
				<path id="XMLID_44_" class="st0" d="M795.8,364.1h-36.6v-8.4c0-3.4,3-6.1,6.8-6.1h22.9c3.9,0,6.9,2.7,6.9,6.2V364.1z"/>
			</g>
			<g>
				<path id="XMLID_43_" class="st0" d="M667.3,489.7c-17.2,0-31.2-11-31.2-24.6v-7.3h13.7v7.3c0,6.6,8,12.2,17.5,12.2
					s17.5-5.6,17.5-12.2v-131c0-21.3,22.3-38.6,49.8-38.6c27.5,0,49.8,17.3,49.8,38.6v19.2h-13.7v-19.2c0-14.5-16.2-26.3-36.1-26.3
					c-19.9,0-36.1,11.8-36.1,26.3v131C698.4,478.7,684.5,489.7,667.3,489.7z"/>
			</g>
			<g>
				<rect id="XMLID_42_" x="621.8" y="323.6" class="st0" width="42.4" height="12.3"/>
			</g>
			<g>
				<path id="XMLID_39_" class="st0" d="M664.1,435.6h-22.3V332.3h22.3V435.6z M649.8,427.6h6.3v-87.3h-6.3V427.6z"/>
			</g>
			<g>
				<path id="XMLID_36_" class="st0" d="M644.1,435.6h-22.3V332.3h22.3V435.6z M629.8,427.6h6.3v-87.3h-6.3V427.6z"/>
			</g>
			<g>
				<path id="XMLID_33_" class="st0" d="M666.2,327.3h-46.5l17.2-28.6c0.8-1.3,2-2.3,3.5-2.8c3.2-1.1,6.9,0.1,8.5,2.8l0,0
					L666.2,327.3z M633.9,319.3H652l-9.1-15.1L633.9,319.3z"/>
			</g>
			<g>
				<rect id="XMLID_32_" x="621.8" y="431.9" class="st0" width="42.4" height="12.3"/>
			</g>
			<g>
				<path id="XMLID_29_" class="st0" d="M634.4,461.5c-7,0-12.6-4.6-12.6-10.5v-10.5h42.3V451c0,5.9-5.5,10.5-12.6,10.5H634.4z
					 M629.8,448.5v2.5c0,1,1.8,2.5,4.6,2.5h17.2c2.8,0,4.6-1.5,4.6-2.5v-2.5H629.8z"/>
			</g>
		</g>
	</g>
</g>
<g>
	<g>
		<g id="outline_11_">
			<path class="st0" d="M992.8,354.8l11.9,8.9c1.3,1,3.2,1,4.5,0l11.9-8.9c2.9-2.2,4.7-5.7,4.7-9.4v-2c0-6.5-5.3-11.7-11.7-11.7
				c-1.8,0-3.6,0.4-5.2,1.2c-1.2,0.6-2.6,0.6-3.8,0c-5.8-2.9-12.8-0.5-15.7,5.3c-0.8,1.6-1.2,3.4-1.2,5.2v2
				C988.1,349.1,989.8,352.6,992.8,354.8z M995.6,343.4c0-2.3,1.9-4.2,4.2-4.2c0.7,0,1.3,0.2,1.9,0.5c3.3,1.6,7.2,1.6,10.5,0
				c2.1-1,4.6-0.2,5.6,1.9c0.3,0.6,0.4,1.2,0.4,1.9v2c0,1.3-0.6,2.6-1.7,3.4l-9.6,7.2l-9.6-7.2c-1-0.8-1.7-2-1.7-3.4L995.6,343.4
				L995.6,343.4z"/>
			<path class="st0" d="M1044.6,364.5h33.9c1.9,0,3.5-1.4,3.7-3.2l3.8-26.4c0.3-2.1-1.1-4-3.2-4.3c-0.2,0-0.4,0-0.5,0h-7.5V323
				c0-2.1-1.7-3.8-3.8-3.8h-11.3c-1.3,0-2.4,0.6-3.1,1.7l-6.4,9.6h-5.5c-2.1,0-3.8,1.7-3.8,3.8v26.4
				C1040.9,362.8,1042.5,364.5,1044.6,364.5z M1048.4,338.1h3.8c1.3,0,2.4-0.6,3.1-1.7l6.4-9.6h5.5v7.5c0,2.1,1.7,3.8,3.8,3.8h7
				l-2.7,18.8h-26.9L1048.4,338.1L1048.4,338.1z"/>
			<path class="st0" d="M1108.9,348l-2.3,11.5c-0.4,2,0.9,4,3,4.4c0.7,0.1,1.5,0.1,2.1-0.2l12.1-4.8l12.1,4.8
				c0.4,0.2,0.9,0.3,1.4,0.3c2.1,0,3.8-1.7,3.8-3.8c0-0.3,0-0.5-0.1-0.8l-2.3-11.5l6.7-6.6c1.5-1.5,1.5-3.9,0-5.3
				c-0.5-0.5-1.1-0.8-1.8-1l-9.3-2.3L1127,321c-1.3-1.8-3.7-2.2-5.5-0.9c-0.4,0.3-0.7,0.6-0.9,0.9l-7.3,11.7l-9.3,2.3
				c-2,0.5-3.2,2.6-2.7,4.6c0.2,0.7,0.5,1.3,1,1.8L1108.9,348z M1116.6,339.7c1-0.2,1.8-0.8,2.3-1.7l4.9-7.8l4.9,7.9
				c0.5,0.8,1.3,1.4,2.3,1.7l4.3,1.1l-3.4,3.4c-0.9,0.9-1.3,2.2-1,3.4l1.3,6.6l-7-2.8c-0.9-0.4-1.9-0.4-2.8,0l-7,2.8l1.3-6.6
				c0.2-1.2-0.1-2.5-1-3.4l-3.4-3.4L1116.6,339.7z"/>
			<path class="st0" d="M965.5,326.8v30.1c0,12.5,10.1,22.6,22.6,22.6h98v17.3c0,4.2,3.4,7.5,7.5,7.5c2,0,3.9-0.8,5.3-2.2l22.6-22.6
				h21.1c12.5,0,22.6-10.1,22.6-22.6v-30.1c0-12.5-10.1-22.6-22.6-22.6H988.1C975.6,304.2,965.5,314.3,965.5,326.8z M973,326.8
				c0-8.3,6.8-15.1,15.1-15.1h154.5c8.3,0,15.1,6.8,15.1,15.1v30.1c0,8.3-6.8,15.1-15.1,15.1H1120c-1,0-2,0.4-2.7,1.1l-23.7,23.7
				v-21.1c0-2.1-1.7-3.8-3.8-3.8H988.1c-8.3,0-15.1-6.8-15.1-15.1V326.8z"/>
			<path class="st0" d="M1076.9,395.3c-1-0.7-2.3-0.9-3.5-0.4l-39.6,14.4c-0.8,0.3-1.7,0.5-2.6,0.5h-30
				c-13.5,0.1-24.5,11.1-24.4,24.6c0,11.3,7.8,21.1,18.7,23.7v17.6c0,7.3,5.9,13.2,13.2,13.2c7.3,0,13.2-5.9,13.2-13.2v-1.9h1.6
				c7.4,0,13.5-6,13.5-13.5l36.4,13.2c0.4,0.1,0.8,0.2,1.3,0.2c2.1,0,3.8-1.7,3.8-3.8v-16.5l6.3-3.1c7.9-3.9,11.1-13.5,7.1-21.4
				c-1.5-3.1-4.1-5.6-7.1-7.1l-6.3-3.1v-20.3C1078.5,397.1,1077.9,396,1076.9,395.3z M984.3,434.2c0-9.4,7.6-16.9,17-17h5.7v33.9
				h-5.7C991.9,451.1,984.3,443.5,984.3,434.2z M1014.5,475.6c0,3.1-2.5,5.6-5.7,5.6s-5.7-2.5-5.7-5.6v-17h11.3V475.6L1014.5,475.6z
				 M1029.6,460.2c0,3.3-2.7,6-6,6h-1.6v-7.5h7.5V460.2z M1071,421v43.6l-34.5-12.6c-1.7-0.6-3.4-0.9-5.1-0.9h-16.8v-33.9h16.8
				c1.8,0,3.5-0.3,5.2-0.9l34.5-12.6L1071,421L1071,421z M1081.4,428.5c4.2,2.1,5.8,7.1,3.8,11.3c-0.8,1.6-2.1,3-3.8,3.8l0,0
				l-2.9,1.4v-18L1081.4,428.5z"/>
		</g>
	</g>
</g>
</svg>
